<svg xmlns="http://www.w3.org/2000/svg" width="437.723" height="64.547" viewBox="0 0 437.723 64.547">
  <g id="Group_3" data-name="Group 3" transform="translate(-67.63 -90.452)">
    <g id="Group_1" data-name="Group 1" transform="translate(68.131 91.499)">
      <path id="Path_1" data-name="Path 1" d="M119.78,143.375a.479.479,0,0,0-.555.046A27.5,27.5,0,0,1,100.61,150.5a29.443,29.443,0,0,1-12.8-2.821,26.288,26.288,0,0,1-9.813-8.071,25.942,25.942,0,0,1-5.326-15.532,28.781,28.781,0,0,1,3.607-14.8A25.432,25.432,0,0,1,91.314,97.3a27.916,27.916,0,0,1,25.784,3.762q.069.046,1.418,1.341,1.272,1.226,2.621-.563.478-.624.964-1.249a.456.456,0,0,0-.031-.594,23.113,23.113,0,0,0-8.687-5.8A34.926,34.926,0,0,0,91.676,92.77a32.7,32.7,0,0,0-13.513,7.084q-9,7.909-9.928,20.8-1.009,14.106,7.739,23.611a31.443,31.443,0,0,0,12.726,8.4,34.731,34.731,0,0,0,20.188.925,27.941,27.941,0,0,0,13.027-7.045.554.554,0,0,0,.131-.624,5.5,5.5,0,0,0-2.266-2.551" transform="translate(-68.131 -91.662)" fill="#2fb99a"/>
      <path id="Path_2" data-name="Path 2" d="M598.284,96.759a.443.443,0,0,1,.447-.432l21.283-.046a.493.493,0,0,0,.486-.37,6.667,6.667,0,0,0,0-3.214.5.5,0,0,0-.493-.37l-47.953-.046a.527.527,0,0,0-.555.486l-.062,3.145c0,.2.216.366.493.37h.008l21.29.092a.386.386,0,0,1,.385.385" transform="translate(-183.473 -91.804)" fill="#123b52"/>
      <path id="Path_3" data-name="Path 3" d="M600.264,135.11q0,.555.185,12.2.1,6.1-.193,12.21a27.872,27.872,0,0,0,.1,4.093.463.463,0,0,0,.424.455l3.484-.077a.439.439,0,0,0,.378-.478" transform="translate(-190.07 -101.619)" fill="#123b52"/>
      <path id="Path_4" data-name="Path 4" d="M600.206,98.09" transform="translate(-190.066 -93.135)" fill="#123b52"/>
      <path id="Path_5" data-name="Path 5" d="M181.07,150.632q-11.855-.469-16.5-9.828a25.525,25.525,0,0,1-2.243-9.057q-.362-4.154-.378-9.4-.038-14.714.046-29.662a.394.394,0,0,0-.385-.4h-3.661a.432.432,0,0,0-.432.432q0,17.968-.008,35.412a35.4,35.4,0,0,0,2.366,13.443,19.7,19.7,0,0,0,6.837,8.757,24.768,24.768,0,0,0,9.944,4,29.972,29.972,0,0,0,14.923-.809q9.582-3.076,13.1-11.562a33.243,33.243,0,0,0,2.559-12.865q-.008-17.922-.008-36.375a.432.432,0,0,0-.432-.432h-3.6a.4.4,0,0,0-.4.4h0q0,17.907.015,35.443a29.3,29.3,0,0,1-2.76,13.251q-3.044,6.1-10.391,8.217a26.8,26.8,0,0,1-8.595,1.041" transform="translate(-88.613 -91.804)" fill="#2fb99a"/>
      <path id="Path_6" data-name="Path 6" d="M281.768,93.507a34.2,34.2,0,0,0-9.127-1.249q-11.346-.023-22.693.062a.394.394,0,0,0-.4.385h0l-.023,3.106a.508.508,0,0,0,.509.509h.008q11.524,0,22.6-.008a24.667,24.667,0,0,1,12.094,2.945,14,14,0,0,1,7.338,10.722q1.5,9.62-4.8,15.224a17.674,17.674,0,0,1-7.57,3.846,35.222,35.222,0,0,1-8.6.994h-20.9a.678.678,0,0,0-.678.678h0v23.2a.4.4,0,0,0,.4.4h3.538a.671.671,0,0,0,.678-.663v-.008l-.162-19a.575.575,0,0,1,.57-.578l23.063-.308a.731.731,0,0,1,.6.293l14.122,19.818a1.075,1.075,0,0,0,.871.447h4.132q.471,0,.2-.385l-14.862-20.758a.416.416,0,0,1,.1-.58.436.436,0,0,1,.079-.044q11.115-4.509,13.389-14.214a21.6,21.6,0,0,0-1.611-14.862q-3.639-7.423-12.857-9.975" transform="translate(-109.699 -91.798)" fill="#2fb99a"/>
      <path id="Path_7" data-name="Path 7" d="M350.424,98.054l25.468,55.955a.625.625,0,0,0,.563.362H380.5a.277.277,0,0,0,.272-.283.274.274,0,0,0-.025-.11L352.567,92.9a.659.659,0,0,0-.532-.439L348.5,92.45a1.438,1.438,0,0,0-1.241.91l-27.75,60.472a.363.363,0,0,0,.167.478.342.342,0,0,0,.141.031H323.7a.611.611,0,0,0,.547-.378l25.43-55.908q.37-.816.748,0" transform="translate(-125.731 -91.843)" fill="#2fb99a"/>
    </g>
    <path id="Path_8" data-name="Path 8" d="M119.78,143.375a5.5,5.5,0,0,1,2.266,2.551.554.554,0,0,1-.131.624,27.941,27.941,0,0,1-13.027,7.045,34.731,34.731,0,0,1-20.188-.925,31.443,31.443,0,0,1-12.726-8.4q-8.749-9.5-7.739-23.611.925-12.9,9.928-20.8A32.7,32.7,0,0,1,91.676,92.77a34.926,34.926,0,0,1,21.707,1.418,23.113,23.113,0,0,1,8.687,5.8.456.456,0,0,1,.031.594q-.486.624-.964,1.249-1.349,1.789-2.621.563-1.349-1.295-1.418-1.341A27.916,27.916,0,0,0,91.314,97.3a25.432,25.432,0,0,0-15.039,11.979,28.781,28.781,0,0,0-3.607,14.8,25.942,25.942,0,0,0,5.326,15.532,26.288,26.288,0,0,0,9.813,8.071,29.443,29.443,0,0,0,12.8,2.821,27.5,27.5,0,0,0,18.616-7.076A.479.479,0,0,1,119.78,143.375Z" transform="translate(0 -0.163)" fill="#2fb99a" stroke="#2fb99a" stroke-miterlimit="10" stroke-width="1"/>
    <path id="Path_9" data-name="Path 9" d="M600.279,129.654" transform="translate(-121.952 -8.869)" fill="#123b52"/>
    <path id="Path_10" data-name="Path 10" d="M600.276,135.11" transform="translate(-121.951 -10.12)" fill="#123b52"/>
    <path id="Path_11" data-name="Path 11" d="M604.762,135.11l-.12,28.405a.439.439,0,0,1-.378.478l-3.484.077a.463.463,0,0,1-.424-.455,27.872,27.872,0,0,1-.1-4.093q.293-6.1.193-12.21-.185-11.647-.185-12.2" transform="translate(-121.939 -10.12)" fill="#123b52"/>
    <path id="Path_12" data-name="Path 12" d="M606.111,135.11" transform="translate(-123.289 -10.12)" fill="#123b52"/>
    <path id="Path_13" data-name="Path 13" d="M606.133,129.654" transform="translate(-123.294 -8.869)" fill="#123b52"/>
    <path id="Path_14" data-name="Path 14" d="M593.669,121.089q0-12.165-.056-24.33a.386.386,0,0,0-.385-.385l-21.29-.092c-.277,0-.5-.163-.5-.364v-.006l.062-3.145a.527.527,0,0,1,.555-.486l47.953.046a.5.5,0,0,1,.493.37,6.669,6.669,0,0,1,0,3.214.493.493,0,0,1-.486.37l-21.283.046a.443.443,0,0,0-.447.432l-.1,24.33" transform="translate(-115.342 -0.304)" fill="#123b52"/>
    <path id="Path_15" data-name="Path 15" d="M181.07,150.632a26.8,26.8,0,0,0,8.595-1.041q7.346-2.119,10.391-8.217a29.3,29.3,0,0,0,2.76-13.251q-.015-17.536-.015-35.443a.4.4,0,0,1,.4-.4h3.6a.432.432,0,0,1,.432.432q0,18.454.008,36.375a33.243,33.243,0,0,1-2.559,12.865q-3.523,8.487-13.1,11.562a29.972,29.972,0,0,1-14.923.809,24.768,24.768,0,0,1-9.944-4,19.7,19.7,0,0,1-6.837-8.757,35.4,35.4,0,0,1-2.366-13.443q.008-17.443.008-35.412a.432.432,0,0,1,.432-.432H161.6a.393.393,0,0,1,.393.393v.008q-.084,14.947-.046,29.662.015,5.249.378,9.4a25.525,25.525,0,0,0,2.243,9.057Q169.215,150.162,181.07,150.632Z" transform="translate(-20.482 -0.304)" fill="#2fb99a"/>
    <path id="Path_16" data-name="Path 16" d="M281.768,93.507q9.219,2.552,12.857,9.975a21.6,21.6,0,0,1,1.611,14.862q-2.274,9.706-13.389,14.214a.416.416,0,0,0-.221.546.393.393,0,0,0,.044.079l14.862,20.758q.269.386-.2.385H293.2a1.075,1.075,0,0,1-.871-.447l-14.122-19.818a.731.731,0,0,0-.6-.293l-23.063.308a.575.575,0,0,0-.57.578l.162,19a.671.671,0,0,1-.671.671h-3.546a.4.4,0,0,1-.4-.4h0v-23.2a.678.678,0,0,1,.678-.678h20.9a35.222,35.222,0,0,0,8.6-.994,17.674,17.674,0,0,0,7.57-3.846q6.3-5.6,4.8-15.224a14,14,0,0,0-7.338-10.722,24.667,24.667,0,0,0-12.094-2.945q-11.077.008-22.6.008a.509.509,0,0,1-.516-.5v-.008l.023-3.106a.394.394,0,0,1,.4-.385h0q11.346-.084,22.693-.062A34.2,34.2,0,0,1,281.768,93.507Z" transform="translate(-41.568 -0.298)" fill="#2fb99a"/>
    <path id="Path_17" data-name="Path 17" d="M494.174,121.094q-.065-9.24.153-18.48.038-1.819-.062-4.956-.077-2.466.008-4.941a.413.413,0,0,1,.409-.4l3.43-.015a.767.767,0,0,1,.755.779h0c0,9.749.027,18.765.027,28.015" transform="translate(-97.633 -0.309)" fill="#123b52"/>
    <path id="Path_18" data-name="Path 18" d="M399,134.687" transform="translate(-75.825 -10.023)" fill="#fff" stroke="#fff" stroke-linecap="round" stroke-miterlimit="10" stroke-width="11.339"/>
    <line id="Line_1" data-name="Line 1" x2="28.213" transform="translate(278.589 124.664)" fill="#2fb99a" stroke="#2fb99a" stroke-miterlimit="10" stroke-width="5.669"/>
    <g id="Group_2" data-name="Group 2" transform="translate(327.879 125.319)">
      <path id="Path_19" data-name="Path 19" d="M405.1,135.537c.066.945.147,1.512.239,2.146q1.959,13.443,12.518,20.62a33.551,33.551,0,0,0,14.253,5.511,35.571,35.571,0,0,0,16.056-1.426,25.883,25.883,0,0,0,10.668-6.506.426.426,0,0,0,.062-.594l-2.12-2.2a.679.679,0,0,0-.925,0A27.96,27.96,0,0,1,434.811,160a27.059,27.059,0,0,1-17.182-7.624,26.32,26.32,0,0,1-7.839-15.656q-.08-.594-.138-1.182" transform="translate(-405.103 -135.537)" fill="#123b52" stroke="#123b52" stroke-miterlimit="10" stroke-width="1"/>
    </g>
    <path id="Path_20" data-name="Path 20" d="M409.673,119.476q.054-.535.127-1.075a26.316,26.316,0,0,1,7.839-15.656,27.055,27.055,0,0,1,17.182-7.624,27.954,27.954,0,0,1,21.044,6.914.679.679,0,0,0,.925,0l2.12-2.2a.426.426,0,0,0-.062-.594,25.866,25.866,0,0,0-10.668-6.506,35.55,35.55,0,0,0-16.056-1.426,33.53,33.53,0,0,0-14.253,5.511q-10.56,7.176-12.518,20.62c-.076.524-.145,1.264-.2,2.038" transform="translate(-77.234 0)" fill="#123b52" stroke="#123b52" stroke-miterlimit="10" stroke-width="1"/>
    <path id="Path_21" data-name="Path 21" d="M425.973,129.655" transform="translate(-82.007 -8.87)" fill="#fff" stroke="#123b52" stroke-miterlimit="10" stroke-width="1"/>
    <line id="Line_2" data-name="Line 2" x2="4.494" transform="translate(442.026 127.23)" fill="none"/>
    <path id="Path_22" data-name="Path 22" d="M546.072,135.537" transform="translate(-109.53 -10.218)" fill="none" stroke="#b8cbd3" stroke-miterlimit="10" stroke-width="1"/>
    <path id="Path_23" data-name="Path 23" d="M504.782,135.537" transform="translate(-100.067 -10.218)" fill="none" stroke="#b8cbd3" stroke-miterlimit="10" stroke-width="1"/>
    <path id="Path_24" data-name="Path 24" d="M539.686,135.537c-.021,3.4-.465,9.35-1.333,12.089q-3.807,11.979-16.712,12.919-16.858,1.226-21.4-13a30.7,30.7,0,0,1-1.21-7.963c-.035-.863-.063-3.073-.085-4.049h-4.669c0,.275.008,2.225.013,2.5a37.437,37.437,0,0,0,1.133,9.443q4.995,17.043,23.7,17.151,15.74.093,22.046-12.225a25.886,25.886,0,0,0,2.32-6.984,71.068,71.068,0,0,0,.686-9.884Z" transform="translate(-97.66 -10.218)" fill="#123b52"/>
    <path id="Path_25" data-name="Path 25" d="M553.045,121.094q-.065-9.24.153-18.48.038-1.819-.062-4.956-.078-2.466.008-4.941a.413.413,0,0,1,.409-.4l3.43-.015a.767.767,0,0,1,.755.779h0c0,9.749.027,18.765.027,28.015" transform="translate(-111.124 -0.309)" fill="#123b52"/>
  </g>
</svg>
